<svg width="241" height="600" viewBox="0 0 241 600" fill="none" xmlns="http://www.w3.org/2000/svg">
<path d="M49 2.08332C45 3.75002 41.83 6.25032 39.5 9.58332C37.17 12.9163 36 16.7503 36 21.0833C36 25.4163 37.17 30.2503 39.5 35.5833C41.83 40.9163 43.67 47.9163 45 56.5833C45.67 60.9163 46.33 65.2503 47 69.5833C45.83 69.4163 44.67 69.2503 43.5 69.0833C41.17 68.7503 38.83 67.7503 36.5 66.0833C34.17 64.4163 32.17 63.5833 30.5 63.5833C29.67 63.5833 28.83 63.5833 28 63.5833C28 63.9163 28 64.2503 28 64.5833C28 65.2503 28.83 66.2503 30.5 67.5833C32.17 68.9163 35.33 70.0833 40 71.0833C44.67 72.0833 48.83 75.9163 52.5 82.5833C56.17 89.2503 56.33 94.2503 53 97.5833C49.67 100.916 47.67 103.916 47 106.583C46.67 107.916 46.33 109.25 46 110.583C46.33 110.583 46.67 110.583 47 110.583C47.67 110.583 48.33 109.416 49 107.083C49.67 104.75 51.67 102.25 55 99.5833C56.67 98.2503 58.33 96.9163 60 95.5833C61 97.2503 62 98.9163 63 100.583C65 103.916 69 107.583 75 111.583C81 115.583 84 117.916 84 118.583C84 119.25 81.33 121.416 76 125.083C70.67 128.75 65.17 133.416 59.5 139.083C53.83 144.75 49.5 150.25 46.5 155.583C43.5 160.916 41.17 166.416 39.5 172.083C37.83 177.75 36.67 184.75 36 193.083C35.33 201.416 35.17 212.583 35.5 226.583C35.83 240.583 38.17 256.916 42.5 275.583C46.83 294.25 49.17 307.083 49.5 314.083C49.83 321.083 49.67 325.75 49 328.083C48.33 330.416 47.17 333.583 45.5 337.583C43.83 341.583 40.33 345.916 35 350.583C29.67 355.25 26.83 359.583 26.5 363.583C26.17 367.583 26.33 370.25 27 371.583C27.33 372.25 27.67 372.916 28 373.583C23.83 373.25 19.67 372.916 15.5 372.583C7.17 371.916 2.5 371.75 1.5 372.083C0.5 372.416 0 373.25 0 374.583C0 375.916 0.33 377.083 1 378.083C1.67 379.083 6.33 379.583 15 379.583C23.67 379.583 30.17 380.25 34.5 381.583C38.83 382.916 45.17 384.083 53.5 385.083C61.83 386.083 74.5 386.25 91.5 385.583C108.5 384.916 118.17 385.75 120.5 388.083C122.83 390.416 125.17 393.75 127.5 398.083C129.83 402.416 131.17 408.083 131.5 415.083C131.83 422.083 128 432.25 120 445.583C112 458.916 107.5 467.583 106.5 471.583C105.5 475.583 105 480.083 105 485.083C105 490.083 107 496.916 111 505.583C115 514.25 119 520.75 123 525.083C127 529.416 130.67 532.75 134 535.083C137.33 537.416 140.67 541.416 144 547.083C147.33 552.75 148.5 560.583 147.5 570.583C146.5 580.583 146.67 587.083 148 590.083C149.33 593.083 151.17 595.416 153.5 597.083C155.83 598.75 159.5 599.583 164.5 599.583C169.5 599.583 173.67 598.75 177 597.083C180.33 595.416 183.67 592.75 187 589.083C190.33 585.416 193 580.916 195 575.583C197 570.25 198 564.75 198 559.083C198 553.416 196.67 546.75 194 539.083C191.33 531.416 188.67 525.25 186 520.583C183.33 515.916 181 512.75 179 511.083C177 509.416 173.33 502.916 168 491.583C162.67 480.25 160 473.083 160 470.083C160 467.083 161.5 461.75 164.5 454.083C167.5 446.416 169.17 441.25 169.5 438.583C169.83 435.916 171.5 432.083 174.5 427.083C177.5 422.083 179.5 417.916 180.5 414.583C181.5 411.25 182 407.25 182 402.583C182 397.916 181.17 392.75 179.5 387.083C178.67 384.25 177.83 381.416 177 378.583C180.17 378.083 183.33 377.583 186.5 377.083C192.83 376.083 196.67 375.083 198 374.083C199.33 373.083 206 372.416 218 372.083C230 371.75 236.83 370.916 238.5 369.583C240.17 368.25 240.83 366.916 240.5 365.583C240.17 364.25 235.33 363.75 226 364.083C221.33 364.25 216.67 364.416 212 364.583C213.83 361.416 215.67 358.25 217.5 355.083C221.17 348.75 223.67 340.583 225 330.583C226.33 320.583 226.67 310.25 226 299.583C225.33 288.916 223.33 277.416 220 265.083C216.67 252.75 210.33 239.583 201 225.583C191.67 211.583 185.17 200.25 181.5 191.583C177.83 182.916 171.5 170.75 162.5 155.083C153.5 139.416 147.83 129.916 145.5 126.583C143.17 123.25 139.83 120.75 135.5 119.083C133.33 118.25 131.17 117.416 129 116.583C132.5 113.75 136 110.916 139.5 108.083C146.5 102.416 152 100.916 156 103.583C158 104.916 160 106.25 162 107.583C161.83 106.916 161.67 106.25 161.5 105.583C161.17 104.25 159.67 102.916 157 101.583C155.67 100.916 154.33 100.25 153 99.5833C154.33 97.2503 155.67 94.9163 157 92.5833C159.67 87.9163 164.5 87.0833 171.5 90.0833C175 91.5833 178.5 93.0833 182 94.5833C181.83 94.0833 181.67 93.5833 181.5 93.0833C181.17 92.0833 178 90.4163 172 88.0833C169 86.9163 166 85.7503 163 84.5833C163.33 83.7503 163.67 82.9163 164 82.0833C164.67 80.4163 168.17 78.5833 174.5 76.5833C177.67 75.5833 180.83 74.5833 184 73.5833C183.83 73.2503 183.67 72.9163 183.5 72.5833C183.17 71.9163 182.17 71.5833 180.5 71.5833C178.83 71.5833 176 72.5833 172 74.5833C170 75.5833 168 76.5833 166 77.5833C167.67 70.7503 169.33 63.9163 171 57.0833C174.33 43.4163 176 33.7503 176 28.0833C176 22.4163 175.5 18.2503 174.5 15.5833C173.5 12.9163 171.5 10.4163 168.5 8.08332C165.5 5.75032 162.17 4.75032 158.5 5.08332C154.83 5.41632 151 7.08332 147 10.0833C143 13.0833 139.67 15.0833 137 16.0833C134.33 17.0833 130 17.5833 124 17.5833C118 17.5833 109.67 16.7503 99 15.0833C88.33 13.4163 80 10.5833 74 6.58332C68 2.58332 63.33 0.416624 60 0.0833241C56.67 -0.249976 53 0.416624 49 2.08332ZM60.5 13.5833C64.17 14.2503 68.17 16.2503 72.5 19.5833C76.83 22.9163 85.83 25.7503 99.5 28.0833C113.17 30.4163 123.5 30.9163 130.5 29.5833C137.5 28.2503 143.5 25.7503 148.5 22.0833C153.5 18.4163 157.33 16.5833 160 16.5833C162.67 16.5833 164.5 17.4163 165.5 19.0833C166.5 20.7503 167 23.2503 167 26.5833C167 29.9163 164.67 39.2503 160 54.5833C155.33 69.9163 151.83 79.0833 149.5 82.0833C147.17 85.0833 142.83 89.0833 136.5 94.0833C130.17 99.0833 125.83 102.083 123.5 103.083C121.17 104.083 119.5 105.416 118.5 107.083C117.5 108.75 117.33 111.25 118 114.583C118.67 117.916 120.67 121.083 124 124.083C127.33 127.083 130 128.75 132 129.083C134 129.416 135.67 130.416 137 132.083C138.33 133.75 145.83 148.75 159.5 177.083C173.17 205.416 183.17 223.916 189.5 232.583C195.83 241.25 200.33 248.916 203 255.583C205.67 262.25 208.17 271.75 210.5 284.083C212.83 296.416 213.83 306.75 213.5 315.083C213.17 323.416 212.5 329.916 211.5 334.583C210.5 339.25 209 343.083 207 346.083C205 349.083 201.83 352.25 197.5 355.583C193.17 358.916 187 361.083 179 362.083C171 363.083 165.83 364.916 163.5 367.583C161.17 370.25 160.33 373.083 161 376.083C161.67 379.083 162.83 381.75 164.5 384.083C166.17 386.416 167.33 390.916 168 397.583C168.67 404.25 167 411.25 163 418.583C159 425.916 156.33 432.416 155 438.083C153.67 443.75 151.83 449.083 149.5 454.083C147.17 459.083 146 464.583 146 470.583C146 476.583 147.83 483.916 151.5 492.583C155.17 501.25 160.17 510.416 166.5 520.083C172.83 529.75 177.17 537.75 179.5 544.083C181.83 550.416 183 555.416 183 559.083C183 562.75 182.5 565.583 181.5 567.583C180.5 569.583 177.67 572.583 173 576.583C168.33 580.583 165.33 582.583 164 582.583C163.33 582.583 162.67 582.583 162 582.583C162.5 578.75 163 574.916 163.5 571.083C164.5 563.416 163.83 556.416 161.5 550.083C159.17 543.75 156 537.916 152 532.583C148 527.25 143.5 522.75 138.5 519.083C133.5 515.416 128.83 510.25 124.5 503.583C120.17 496.916 117.83 490.583 117.5 484.583C117.17 478.583 117.33 474.416 118 472.083C118.67 469.75 121 465.083 125 458.083C129 451.083 131.67 447.083 133 446.083C134.33 445.083 136.33 440.916 139 433.583C141.67 426.25 143 420.416 143 416.083C143 411.75 140.83 404.75 136.5 395.083C132.17 385.416 128.33 378.75 125 375.083C121.67 371.416 108.17 370.083 84.5 371.083C60.83 372.083 46.83 371.583 42.5 369.583C40.33 368.583 38.17 367.583 36 366.583C36.33 365.916 36.67 365.25 37 364.583C37.67 363.25 39 362.25 41 361.583C43 360.916 45.17 359.416 47.5 357.083C49.83 354.75 52.67 349.25 56 340.583C59.33 331.916 60.83 323.25 60.5 314.583C60.17 305.916 58.33 295.25 55 282.583C51.67 269.916 49 257.416 47 245.083C45 232.75 44.33 218.583 45 202.583C45.67 186.583 46.67 176.083 48 171.083C49.33 166.083 51.17 161.583 53.5 157.583C55.83 153.583 59 149.416 63 145.083C67 140.75 71.17 137.75 75.5 136.083C79.83 134.416 83.33 132.583 86 130.583C88.67 128.583 90.67 126.916 92 125.583C93.33 124.25 94.67 121.75 96 118.083C97.33 114.416 97 111.416 95 109.083C93 106.75 91.17 105.583 89.5 105.583C87.83 105.583 86.17 104.75 84.5 103.083C82.83 101.416 81 100.25 79 99.5833C77 98.9163 73.83 96.2503 69.5 91.5833C65.17 86.9163 62.17 83.0833 60.5 80.0833C58.83 77.0833 57.33 70.0833 56 59.0833C54.67 48.0833 52.67 39.4163 50 33.0833C47.33 26.7503 46 22.7503 46 21.0833C46 19.4163 47.5 17.5833 50.5 15.5833C53.5 13.5833 56.83 12.9163 60.5 13.5833ZM44 86.0833C41.33 87.0833 39.33 88.2503 38 89.5833C36.67 90.9163 36 92.2503 36 93.5833C36 94.2503 36 94.9163 36 95.5833C37.17 94.5833 38.33 93.5833 39.5 92.5833C41.83 90.5833 44.33 89.0833 47 88.0833C49.67 87.0833 51.17 86.2503 51.5 85.5833C51.67 85.2503 51.83 84.9163 52 84.5833C51.33 84.5833 50.67 84.5833 50 84.5833C48.67 84.5833 46.67 85.0833 44 86.0833Z" fill="black"/>
</svg>
